<?xml version="1.0" encoding="UTF-8"?>
<svg width="40px" height="40px" viewBox="0 0 40 40" version="1.1" xmlns="http://www.w3.org/2000/svg" xmlns:xlink="http://www.w3.org/1999/xlink">
    <!-- Generator: Sketch 64 (93537) - https://sketch.com -->
    <title>paid</title>
    <desc>Created with Sketch.</desc>
    <g id="Page-1" stroke="none" stroke-width="1" fill="none" fill-rule="evenodd">
        <g id="dashboard" transform="translate(-185.000000, -1170.000000)">
            <g id="Activity" transform="translate(165.000000, 1051.000000)">
                <g id="paid" transform="translate(24.000000, 123.000000)">
                    <circle id="Oval-6-Copy" stroke="#FFFFFF" stroke-width="3.42857143" fill="#CFF3E3" cx="16" cy="16" r="17.7142857"></circle>
                    <path d="M16.3527032,22.7028571 C15.0848873,22.6053328 14.1127066,22.2396222 13.4361318,21.6057143 C12.759557,20.9718064 12.3725132,20.0880057 12.2749889,18.9542857 L13.8292746,18.9542857 C13.9877516,20.4171502 14.8288861,21.2278087 16.3527032,21.3862857 L16.3527032,16.6502857 L16.1698461,16.6137143 C15.5968908,16.51619 15.0909911,16.3790485 14.6521318,16.2022857 C14.2132724,16.0255229 13.8414666,15.7939062 13.5367032,15.5074286 C13.2319398,15.2209509 13.000323,14.8643831 12.8418461,14.4377143 C12.6833691,14.0110455 12.6041318,13.5051458 12.6041318,12.92 C12.6041318,12.4445691 12.6925118,12.0087639 12.8692746,11.6125714 C13.0460374,11.216379 13.2959397,10.8689539 13.6189889,10.5702857 C13.9420382,10.2716176 14.3351771,10.0308581 14.7984175,9.848 C15.2616579,9.66514194 15.779748,9.5432384 16.3527032,9.48228571 L16.3527032,7.94628571 L17.5595603,7.94628571 L17.5595603,9.464 C18.2300399,9.52495269 18.7938438,9.66514176 19.2509889,9.88457143 C19.7081341,10.1040011 20.0799399,10.3691413 20.3664175,10.68 C20.6528951,10.9908587 20.8692739,11.329141 21.0155603,11.6948571 C21.1618468,12.0605733 21.2654648,12.4201887 21.3264175,12.7737143 L19.8269889,13.048 C19.7538457,12.7432366 19.6593704,12.4628584 19.5435603,12.2068571 C19.4277502,11.9508559 19.2845136,11.7253343 19.1138461,11.5302857 C18.9431785,11.3352371 18.7298473,11.1737149 18.4738461,11.0457143 C18.2178448,10.9177136 17.9130859,10.8293336 17.5595603,10.7805714 L17.5595603,15.3337143 L17.8155603,15.3702857 C18.9980424,15.5531438 19.8940335,15.9310448 20.5035603,16.504 C21.1130872,17.0769552 21.4178461,17.9363752 21.4178461,19.0822857 C21.4178461,19.5455261 21.3386088,19.9874265 21.1801318,20.408 C21.0216548,20.8285735 20.7808953,21.2034269 20.4578461,21.5325714 C20.1347968,21.8617159 19.7325151,22.1299037 19.2509889,22.3371429 C18.7694627,22.544382 18.2056588,22.6723807 17.5595603,22.7211429 L17.5595603,24.44 L16.3527032,24.44 L16.3527032,22.7028571 Z M17.5595603,21.4045714 C18.3397547,21.3192377 18.9066062,21.0662878 19.2601318,20.6457143 C19.6136574,20.2251408 19.7904175,19.7040031 19.7904175,19.0822857 C19.7904175,18.8506655 19.7629892,18.6190488 19.7081318,18.3874286 C19.6532744,18.1558084 19.5496563,17.9394296 19.3972746,17.7382857 C19.2448929,17.5371419 19.0346093,17.3634293 18.7664175,17.2171429 C18.4982257,17.0708564 18.1508006,16.9611432 17.7241318,16.888 L17.5595603,16.8697143 L17.5595603,21.4045714 Z M16.3527032,10.7805714 C15.5359372,10.8780957 14.9660382,11.1249504 14.6429889,11.5211429 C14.3199397,11.9173353 14.1584175,12.3592357 14.1584175,12.8468571 C14.1584175,13.13943 14.1888934,13.4045702 14.2498461,13.6422857 C14.3107987,13.8800012 14.4235595,14.0933324 14.5881318,14.2822857 C14.752704,14.471239 14.9782256,14.6358088 15.2647032,14.776 C15.5511808,14.9161912 15.9138439,15.028952 16.3527032,15.1142857 L16.3527032,10.7805714 Z" id="$" fill="#10C176" fill-rule="nonzero"></path>
                </g>
            </g>
        </g>
    </g>
</svg>