<?xml version="1.0" encoding="UTF-8"?>
<svg width="14px" height="13px" viewBox="0 0 14 13" version="1.1" xmlns="http://www.w3.org/2000/svg" xmlns:xlink="http://www.w3.org/1999/xlink">
    <!-- Generator: Sketch 64 (93537) - https://sketch.com -->
    <title>chevron</title>
    <desc>Created with Sketch.</desc>
    <g id="Page-1" stroke="none" stroke-width="1" fill="none" fill-rule="evenodd">
        <g id="dashboard" transform="translate(-1260.000000, -493.000000)" fill="#79828B" fill-rule="nonzero">
            <g id="Suggested-Projects" transform="translate(165.000000, 482.000000)">
                <g id="chevron" transform="translate(1095.000000, 11.000000)">
                    <path d="M8.54282465,0.302728459 L13.6053247,5.90617674 C13.9080838,6.24128694 13.9080838,6.75871306 13.6053247,7.09382326 L8.54282465,12.6972715 C8.22274876,13.0515488 7.68298132,13.0728836 7.33722033,12.744924 C6.99145933,12.4169645 6.97063744,11.8639023 7.29071333,11.509625 L11.025875,7.37340968 L0.875,7.37413798 C0.403832047,7.37413798 0.0218749531,6.98277308 0.0218749531,6.5 C0.0218749531,6.01722692 0.403832047,5.62586202 0.875,5.62586202 L11.025875,5.62540968 L7.29071333,1.49037499 C6.97063744,1.13609772 6.99145933,0.583035508 7.33722033,0.255075975 C7.68298132,-0.0728835582 8.22274876,-0.0515488143 8.54282465,0.302728459 Z" id="Combined-Shape"></path>
                </g>
            </g>
        </g>
    </g>
</svg>