<?xml version="1.0" encoding="UTF-8"?>
<svg width="16px" height="16px" viewBox="0 0 16 16" version="1.1" xmlns="http://www.w3.org/2000/svg" xmlns:xlink="http://www.w3.org/1999/xlink">
    <!-- Generator: Sketch 64 (93537) - https://sketch.com -->
    <title>chevron</title>
    <desc>Created with Sketch.</desc>
    <g id="Page-1" stroke="none" stroke-width="1" fill="none" fill-rule="evenodd">
        <g id="dashboard" transform="translate(-1260.000000, -46.000000)">
            <g id="Header">
                <g id="chevron" transform="translate(1260.000000, 46.000000)">
                    <circle id="Oval" fill="#5A6ABC" cx="8" cy="8" r="8"></circle>
                    <g transform="translate(4.000000, 6.000000)" fill="#FFFFFF" id="Combined-Shape">
                        <path d="M7.2348683,0.759254204 L7.29481548,0.805977444 L7.3512315,0.868541139 C7.54690996,1.12474564 7.5197811,1.48573912 7.2782129,1.71220931 L4.49302327,4.32332459 L4.48681548,4.32797744 L4.44931463,4.36430144 L4.44931463,4.36430144 L4.46881548,4.34197744 L4.40665477,4.39229963 C4.1647387,4.55593292 3.837098,4.55703167 3.59355883,4.39239623 L3.52781548,4.33997744 C3.51970582,4.33502876 3.51329224,4.32924538 3.50697673,4.32332459 L0.721787103,1.71220931 C0.476726793,1.48246527 0.450548155,1.12581912 0.648110693,0.868961399 L0.702815482,0.807977444 L0.764683423,0.759870895 C1.03796823,0.576422346 1.42302794,0.601855648 1.66459614,0.828325838 L3.99881548,3.01797744 L6.33540386,0.828325838 C6.58046417,0.598581798 6.96088673,0.574039325 7.2348683,0.759254204 Z"></path>
                    </g>
                </g>
            </g>
        </g>
    </g>
</svg>