<?xml version="1.0" encoding="UTF-8"?>
<svg width="56px" height="56px" viewBox="0 0 56 56" version="1.1" xmlns="http://www.w3.org/2000/svg" xmlns:xlink="http://www.w3.org/1999/xlink">
    <!-- Generator: Sketch 64 (93537) - https://sketch.com -->
    <title>slack</title>
    <desc>Created with Sketch.</desc>
    <g id="Page-1" stroke="none" stroke-width="1" fill="none" fill-rule="evenodd">
        <g id="dashboard" transform="translate(-211.000000, -899.000000)" fill="#FFFFFF" fill-rule="nonzero">
            <g id="Banner" transform="translate(165.000000, 854.000000)">
                <path d="M101.760452,75.0535433 C101.351565,73.7908499 100.456584,72.7429776 99.2733324,72.1415454 C98.090081,71.5401131 96.7159995,71.4346484 95.454811,71.8484627 L90.4453292,73.4842798 L87.0297734,62.9758187 L92.060274,61.3400016 C93.7567491,60.7887436 95.0302377,59.3743825 95.401029,57.6296945 C95.7718203,55.8850066 95.1835822,54.0750514 93.8578984,52.8816215 C92.5322146,51.6881916 90.6704879,51.2925975 88.9740129,51.8438556 L83.9435122,53.4796727 L82.3040455,48.4496227 C81.752738,46.7532996 80.3382503,45.479925 78.593406,45.109167 C76.8485618,44.7384089 75.0384444,45.3265943 73.8449076,46.6521594 C72.6513709,47.9777244 72.2557413,49.8392843 72.8070488,51.5356074 L74.4430125,56.5586518 L74.4430125,56.5586518 L63.93361,59.9739017 L63.93361,59.9739017 L62.3011495,54.9508573 C61.448902,52.328569 58.6320438,50.8936056 56.0095206,51.7457767 C53.3869975,52.5979479 51.9519054,55.4145537 52.8041529,58.036842 L54.4401165,63.0703949 L54.4401165,63.0703949 L49.2484717,64.7552515 C46.7431969,65.6910539 45.4193914,68.4337391 46.2453669,70.9771404 C47.0713424,73.5205418 49.7540656,74.9623305 52.3312298,74.2478946 L57.5158683,72.5595352 L60.9314241,83.0679963 L55.7643012,84.7563557 C53.2590264,85.6921581 51.9352209,88.4348433 52.7611964,90.9782447 C53.5871719,93.521646 56.2698951,94.9634347 58.8470593,94.2489989 L64.0422072,92.5606395 L64.0422072,92.5606395 L65.7132022,97.7518192 C66.6490884,100.25687 69.3920193,101.580557 71.9356485,100.754655 C74.4792777,99.9287535 75.9211955,97.2462706 75.2066957,94.6693373 L73.518185,89.4851632 L73.518185,89.4851632 L84.0275875,86.0699133 L85.7160981,91.2365734 C86.6481174,93.748357 89.3959477,95.0776241 91.9440195,94.24934 C94.4920913,93.4210558 95.9328991,90.7302168 95.2095916,88.1505886 L93.521081,82.9594089 L98.5515816,81.3235918 C101.164969,80.4731467 102.599322,77.67046 101.760452,75.0535433 L101.760452,75.0535433 Z M67.0198712,69.4770533 L77.5292736,66.0618035 L80.9448294,76.5702645 L70.435427,79.9855144 L67.0198712,69.4770533 Z" id="slack"></path>
            </g>
        </g>
    </g>
</svg>